<?xml version="1.0" encoding="UTF-8" standalone="no"?>
<!-- Created with Inkscape (http://www.inkscape.org/) -->

<svg
   width="150mm"
   height="150mm"
   viewBox="0 0 150 150"
   version="1.1"
   id="svg1"
   sodipodi:docname="dimensions.svg"
   inkscape:version="1.4.4 (dcaf3e7d9e, 2026-05-05)"
   xmlns:inkscape="http://www.inkscape.org/namespaces/inkscape"
   xmlns:sodipodi="http://sodipodi.sourceforge.net/DTD/sodipodi-0.dtd"
   xmlns="http://www.w3.org/2000/svg"
   xmlns:svg="http://www.w3.org/2000/svg">
  <style
     id="style1">
.measure-arrow
{
}
.measure-label
{

}
.measure-line
{
}</style>
  <sodipodi:namedview
     id="namedview1"
     pagecolor="#ffffff"
     bordercolor="#000000"
     borderopacity="0.25"
     inkscape:showpageshadow="2"
     inkscape:pageopacity="0.0"
     inkscape:pagecheckerboard="0"
     inkscape:deskcolor="#d1d1d1"
     inkscape:document-units="mm"
     showgrid="true"
     inkscape:zoom="2.2887132"
     inkscape:cx="305.84872"
     inkscape:cy="118.18868"
     inkscape:window-width="3440"
     inkscape:window-height="1368"
     inkscape:window-x="0"
     inkscape:window-y="0"
     inkscape:window-maximized="1"
     inkscape:current-layer="layer1">
    <inkscape:grid
       id="grid1"
       units="mm"
       originx="0"
       originy="0"
       spacingx="0.99999998"
       spacingy="1"
       empcolor="#0099e5"
       empopacity="0.30196078"
       color="#0099e5"
       opacity="0.14902"
       empspacing="5"
       enabled="true"
       visible="true" />
  </sodipodi:namedview>
  <defs
     id="defs1">
    <inkscape:path-effect
       effect="measure_segments"
       linked_items=""
       id="path-effect1"
       is_visible="true"
       lpeversion="1.3.1"
       unit="mm"
       orientation="parallel"
       coloropacity="#333333ff"
       fontbutton="PT Sans 8"
       precision="1"
       fix_overlaps="0"
       position="5"
       text_top_bottom="0"
       helpline_distance="0"
       helpline_overlap="2"
       line_width="0.25"
       scale="1"
       format="{measure}{unit}"
       blacklist=""
       active_projection="false"
       whitelist="false"
       showindex="false"
       arrows_outside="false"
       flip_side="false"
       scale_sensitive="true"
       local_locale="true"
       rotate_anotation="true"
       hide_back="true"
       hide_arrows="false"
       smallx100="false"
       distance_projection="20"
       angle_projection="0"
       avoid_overlapping="true"
       onbbox="false"
       bboxonly="false"
       centers="false"
       maxmin="false"
       helpdata=""
       coloropacity_opacity_LPE="1" />
    <inkscape:path-effect
       effect="measure_segments"
       linked_items=""
       id="path-effect1-9"
       is_visible="true"
       lpeversion="1.3.1"
       unit="mm"
       orientation="parallel"
       coloropacity="#333333ff"
       fontbutton="PT Sans 8"
       precision="1"
       fix_overlaps="0"
       position="5"
       text_top_bottom="0"
       helpline_distance="0"
       helpline_overlap="2"
       line_width="0.25"
       scale="1"
       format="{measure}{unit}"
       blacklist=""
       active_projection="false"
       whitelist="false"
       showindex="false"
       arrows_outside="false"
       flip_side="false"
       scale_sensitive="true"
       local_locale="true"
       rotate_anotation="true"
       hide_back="true"
       hide_arrows="false"
       smallx100="false"
       distance_projection="20"
       angle_projection="0"
       avoid_overlapping="true"
       onbbox="false"
       bboxonly="false"
       centers="false"
       maxmin="false"
       helpdata=""
       coloropacity_opacity_LPE="1" />
  </defs>
  <g
     inkscape:label="Слой 1"
     inkscape:groupmode="layer"
     id="layer1">
    <path
       style="fill:none;stroke:#333333;stroke-width:0.264583;stroke-linejoin:round"
       d="M 13,10 H 77.000002"
       id="path1" />
    <path
       style="fill:none;stroke:#333333;stroke-width:0.264583;stroke-linejoin:round"
       d="M 13,110 H 77.000002"
       id="path1-33" />
    <path
       style="fill:none;stroke:#333333;stroke-width:0.264584;stroke-linejoin:round"
       d="M 80.000003,13.000001 V 107"
       id="path1-3" />
    <path
       style="fill:none;stroke:#333333;stroke-width:0.264584;stroke-linejoin:round"
       d="m 10.000002,13 v 94"
       id="path1-3-6" />
    <path
       style="fill:none;stroke:#333333;stroke-width:0.264583;stroke-linejoin:round;stroke-dasharray:none;stroke-opacity:1"
       id="path5"
       sodipodi:type="arc"
       sodipodi:cx="-13"
       sodipodi:cy="77"
       sodipodi:rx="3"
       sodipodi:ry="3"
       sodipodi:start="0"
       sodipodi:end="1.5707963"
       sodipodi:open="true"
       sodipodi:arc-type="arc"
       d="M -10,77 A 3,3 0 0 1 -10.87868,79.12132 3,3 0 0 1 -13,80"
       transform="rotate(-90)" />
    <path
       style="fill:none;stroke:#333333;stroke-width:0.264583;stroke-linejoin:round;stroke-dasharray:none;stroke-opacity:1"
       id="path5-88"
       sodipodi:type="arc"
       sodipodi:cx="77"
       sodipodi:cy="107"
       sodipodi:rx="3"
       sodipodi:ry="3"
       sodipodi:start="0"
       sodipodi:end="1.5707963"
       sodipodi:open="true"
       sodipodi:arc-type="arc"
       d="m 80,107 a 3,3 0 0 1 -3,3" />
    <path
       style="fill:none;stroke:#333333;stroke-width:0.264583;stroke-linejoin:round;stroke-dasharray:none;stroke-opacity:1"
       id="path5-88-0"
       sodipodi:type="arc"
       sodipodi:cx="107"
       sodipodi:cy="-13.000002"
       sodipodi:rx="3"
       sodipodi:ry="3"
       sodipodi:start="0"
       sodipodi:end="1.5707963"
       sodipodi:open="true"
       sodipodi:arc-type="arc"
       d="m 110,-13.000002 a 3,3 0 0 1 -3,3"
       transform="rotate(90)" />
    <path
       style="fill:none;stroke:#333333;stroke-width:0.264583;stroke-linejoin:round;stroke-dasharray:none;stroke-opacity:1"
       id="path5-8"
       sodipodi:type="arc"
       sodipodi:cx="-13"
       sodipodi:cy="-13"
       sodipodi:rx="3"
       sodipodi:ry="3"
       sodipodi:start="0"
       sodipodi:end="1.5707963"
       sodipodi:open="true"
       sodipodi:arc-type="arc"
       d="m -10,-13 a 3,3 0 0 1 -3,3"
       transform="scale(-1)" />
    <circle
       style="fill:none;stroke:#333333;stroke-width:0.264583;stroke-linejoin:round;stroke-dasharray:none;stroke-opacity:1"
       id="path6"
       cx="15.000002"
       cy="15"
       r="2.1500001" />
    <circle
       style="fill:none;stroke:#333333;stroke-width:0.264583;stroke-linejoin:round;stroke-dasharray:none;stroke-opacity:1"
       id="path6-0"
       cx="62"
       cy="15"
       r="2.1500001" />
    <circle
       style="fill:none;stroke:#333333;stroke-width:0.264583;stroke-linejoin:round;stroke-dasharray:none;stroke-opacity:1"
       id="path6-0-7"
       cx="62"
       cy="105"
       r="2.1500001" />
    <circle
       style="fill:none;stroke:#333333;stroke-width:0.264583;stroke-linejoin:round;stroke-dasharray:none;stroke-opacity:1"
       id="path6-0-7-2"
       cx="15.000002"
       cy="105"
       r="2.1500001" />
    <path
       style="fill:#e6e6e6;stroke:none;stroke-width:0.999999;stroke-linejoin:round;stroke-dasharray:none;stroke-opacity:1;fill-opacity:1"
       d="m 45.47775,414.33175 c -1.060841,-0.37557 -2.76822,-1.52227 -3.794175,-2.54823 -3.557549,-3.55755 -3.234022,14.95146 -3.234022,-185.01854 0,-200.136834 -0.330376,-181.454145 3.272466,-185.056987 3.570772,-3.570773 -8.431542,-3.278272 129.347871,-3.152257 l 122.76334,0.112281 1.78908,0.957344 c 2.08303,1.114638 4.39939,3.608848 5.25641,5.659979 0.89979,2.153499 0.89979,360.80578 0,362.95928 -0.85702,2.05113 -3.17338,4.54534 -5.25641,5.65998 l -1.78908,0.95734 -123.21334,0.0763 c -110.73726,0.0686 -123.408641,0.007 -125.14214,-0.60652 z m 14.948232,-9.45404 c 1.808064,-0.75546 3.995103,-3.24476 4.683586,-5.33088 1.188834,-3.6022 -0.474152,-8.23821 -3.661824,-10.20831 -1.94457,-1.2018 -5.33973,-1.61941 -7.464616,-0.91813 -2.086123,0.68848 -4.575422,2.87552 -5.330879,4.68359 -1.326857,3.17562 -0.397994,8.24403 1.875528,10.23395 2.396585,2.09763 6.89009,2.79665 9.898205,1.53978 z M 238.256,404.75994 c 3.87702,-1.96324 5.60309,-5.94757 4.4696,-10.31729 -1.66048,-6.40133 -9.9194,-8.56059 -14.64984,-3.83014 -4.28126,4.28126 -3.08875,11.31214 2.4031,14.1684 1.73022,0.89987 5.9813,0.88841 7.77714,-0.021 z M 61.581975,64.077973 c 2.165095,-1.432792 3.49169,-3.631417 3.809327,-6.313369 0.316983,-2.676423 -0.385432,-4.914939 -2.185582,-6.965196 -1.757604,-2.0018 -3.569608,-2.737466 -6.742595,-2.737466 -4.940091,0 -8.401183,3.491182 -8.401183,8.474221 0,4.019884 1.540039,6.533783 5.024657,8.202052 2.40443,1.151126 6.204492,0.855793 8.495376,-0.660242 z m 176.324635,0.632685 c 4.72337,-2.186848 6.52712,-7.752419 4.05081,-12.498944 -1.55158,-2.974002 -4.23458,-4.299721 -8.24338,-4.073204 -2.50606,0.141605 -3.22606,0.37342 -4.63057,1.490893 -4.35827,3.467573 -4.77728,9.518482 -0.92583,13.369931 2.5494,2.5494 6.45719,3.235369 9.74897,1.711324 z"
       id="path8"
       transform="scale(0.26458333)" />
  </g>
</svg>
